<mxfile host="app.diagrams.net" modified="2023-12-26T10:58:54.466Z" agent="Mozilla/5.0 (Windows NT 10.0; Win64; x64) AppleWebKit/537.36 (KHTML, like Gecko) Chrome/120.0.0.0 Safari/537.36" etag="atl4uawe8iYwNSI_4svG" version="22.1.11" type="github">
  <diagram name="第 1 页" id="sOmlJIcZuwc7b4XqdzQj">
    <mxGraphModel dx="797" dy="523" grid="1" gridSize="10" guides="1" tooltips="1" connect="1" arrows="1" fold="1" page="1" pageScale="1" pageWidth="827" pageHeight="1169" math="0" shadow="0">
      <root>
        <mxCell id="0" />
        <mxCell id="1" parent="0" />
        <mxCell id="FjT4K9WoOIpY4Io7dNzL-6" style="edgeStyle=orthogonalEdgeStyle;rounded=0;orthogonalLoop=1;jettySize=auto;html=1;exitX=1;exitY=0.5;exitDx=0;exitDy=0;entryX=0;entryY=0.5;entryDx=0;entryDy=0;" edge="1" parent="1" source="FjT4K9WoOIpY4Io7dNzL-4" target="FjT4K9WoOIpY4Io7dNzL-3">
          <mxGeometry relative="1" as="geometry" />
        </mxCell>
        <mxCell id="FjT4K9WoOIpY4Io7dNzL-4" value="" style="rounded=0;whiteSpace=wrap;html=1;" vertex="1" parent="1">
          <mxGeometry x="30" y="260" width="170" height="110" as="geometry" />
        </mxCell>
        <mxCell id="FjT4K9WoOIpY4Io7dNzL-1" value="线下配置表" style="rounded=0;whiteSpace=wrap;html=1;" vertex="1" parent="1">
          <mxGeometry x="50" y="270" width="120" height="60" as="geometry" />
        </mxCell>
        <mxCell id="FjT4K9WoOIpY4Io7dNzL-2" value="实时商品维表&lt;br&gt;(hbase)" style="rounded=0;whiteSpace=wrap;html=1;" vertex="1" parent="1">
          <mxGeometry x="280" y="230" width="120" height="60" as="geometry" />
        </mxCell>
        <mxCell id="FjT4K9WoOIpY4Io7dNzL-7" style="edgeStyle=orthogonalEdgeStyle;rounded=0;orthogonalLoop=1;jettySize=auto;html=1;exitX=0.5;exitY=0;exitDx=0;exitDy=0;" edge="1" parent="1" source="FjT4K9WoOIpY4Io7dNzL-3" target="FjT4K9WoOIpY4Io7dNzL-2">
          <mxGeometry relative="1" as="geometry" />
        </mxCell>
        <mxCell id="FjT4K9WoOIpY4Io7dNzL-3" value="离线商品维表&lt;br&gt;(hive)" style="rounded=0;whiteSpace=wrap;html=1;" vertex="1" parent="1">
          <mxGeometry x="280" y="330" width="120" height="60" as="geometry" />
        </mxCell>
        <mxCell id="FjT4K9WoOIpY4Io7dNzL-5" value="spu和sku映射关系" style="text;html=1;strokeColor=none;fillColor=none;align=center;verticalAlign=middle;whiteSpace=wrap;rounded=0;" vertex="1" parent="1">
          <mxGeometry x="50" y="330" width="120" height="30" as="geometry" />
        </mxCell>
        <mxCell id="FjT4K9WoOIpY4Io7dNzL-8" value="初始化" style="text;html=1;strokeColor=none;fillColor=none;align=center;verticalAlign=middle;whiteSpace=wrap;rounded=0;" vertex="1" parent="1">
          <mxGeometry x="310" y="300" width="60" height="30" as="geometry" />
        </mxCell>
        <mxCell id="FjT4K9WoOIpY4Io7dNzL-10" style="edgeStyle=orthogonalEdgeStyle;rounded=0;orthogonalLoop=1;jettySize=auto;html=1;exitX=1;exitY=0.5;exitDx=0;exitDy=0;entryX=0.5;entryY=0;entryDx=0;entryDy=0;" edge="1" parent="1" source="FjT4K9WoOIpY4Io7dNzL-9" target="FjT4K9WoOIpY4Io7dNzL-2">
          <mxGeometry relative="1" as="geometry" />
        </mxCell>
        <mxCell id="FjT4K9WoOIpY4Io7dNzL-9" value="实时商品表&lt;br&gt;(kafka)" style="rounded=0;whiteSpace=wrap;html=1;" vertex="1" parent="1">
          <mxGeometry x="55" y="180" width="120" height="60" as="geometry" />
        </mxCell>
        <mxCell id="FjT4K9WoOIpY4Io7dNzL-12" value="关联写入" style="text;html=1;strokeColor=none;fillColor=default;align=center;verticalAlign=middle;whiteSpace=wrap;rounded=0;" vertex="1" parent="1">
          <mxGeometry x="207" y="340" width="50" height="10" as="geometry" />
        </mxCell>
        <mxCell id="FjT4K9WoOIpY4Io7dNzL-19" value="关联写入" style="text;html=1;strokeColor=none;fillColor=default;align=center;verticalAlign=middle;whiteSpace=wrap;rounded=0;" vertex="1" parent="1">
          <mxGeometry x="203" y="199" width="50" height="20" as="geometry" />
        </mxCell>
      </root>
    </mxGraphModel>
  </diagram>
</mxfile>
